<?xml version="1.0" encoding="UTF-8" standalone="no"?><!DOCTYPE svg PUBLIC "-//W3C//DTD SVG 1.1//EN" "http://www.w3.org/Graphics/SVG/1.1/DTD/svg11.dtd"><svg width="100%" height="100%" viewBox="0 0 1024 300" version="1.1" xmlns="http://www.w3.org/2000/svg" xmlns:xlink="http://www.w3.org/1999/xlink" xml:space="preserve" style="fill-rule:evenodd;clip-rule:evenodd;stroke-linejoin:round;stroke-miterlimit:1.41421;"><g><path d="M191.941,116.972l-29.241,0l0,92.772l-29.159,0l0,-92.772l-29.241,0l0,-25.983l87.641,0l0,25.983Z" style="fill:url(#_Linear1);fill-rule:nonzero;"/><path d="M289.681,209.744l-80.798,0l0,-118.755l80.798,0l0,25.983l-51.558,0l0,19.874l44.065,0l0,26.064l-44.065,0l0,20.851l51.558,0l0,25.983Z" style="fill:url(#_Linear2);fill-rule:nonzero;"/><path d="M384.408,197.526c-4.398,4.399 -9.136,7.697 -14.213,9.896c-5.077,2.2 -11.308,3.299 -18.693,3.299c-13.195,0 -24.191,-4.452 -32.987,-13.358c-5.213,-5.212 -8.525,-11.131 -9.937,-17.756c-1.412,-6.624 -2.118,-15.041 -2.118,-25.249l0,-3.991l0,-3.992c0,-10.208 0.706,-18.638 2.118,-25.29c1.412,-6.652 4.724,-12.584 9.937,-17.797c4.452,-4.452 9.339,-7.778 14.661,-9.977c5.321,-2.2 11.43,-3.299 18.326,-3.299c7.385,0 13.643,1.113 18.774,3.339c5.132,2.227 9.842,5.485 14.132,9.774l-19.385,19.386c-2.172,-2.281 -4.195,-3.937 -6.068,-4.969c-1.874,-1.032 -4.358,-1.548 -7.453,-1.548c-4.941,0 -8.715,1.657 -11.322,4.969c-1.031,1.303 -1.859,2.864 -2.484,4.683c-0.624,1.819 -1.113,4.589 -1.466,8.308c-0.353,3.72 -0.529,9.191 -0.529,16.413c0,9.611 0.353,16.357 1.059,20.24c0.705,3.882 1.846,6.91 3.42,9.082c2.607,3.366 6.381,5.05 11.322,5.05c3.095,0 5.552,-0.516 7.371,-1.548c1.819,-1.032 3.869,-2.688 6.15,-4.968l19.385,19.303Z" style="fill:url(#_Linear3);fill-rule:nonzero;"/><path d="M490.945,209.744l-29.159,0l0,-47.078l-31.033,0l0,47.078l-29.24,0l0,-118.755l29.24,0l0,45.694l31.033,0l0,-45.694l29.159,0l0,118.755Z" style="fill:url(#_Linear4);fill-rule:nonzero;"/><path d="M607.908,209.744l-8.96,0l-68.581,-103.279l0,103.279l-9.041,0l0,-118.755l9.041,0l68.581,102.872l0,-102.872l8.96,0l0,118.755Z" style="fill:url(#_Linear5);fill-rule:nonzero;"/><path d="M721.287,150.367c0,10.697 -0.19,18.57 -0.57,23.62c-0.381,5.05 -1.331,9.53 -2.851,13.439c-1.521,3.91 -4.046,7.63 -7.575,11.159c-3.855,3.855 -8.349,6.842 -13.48,8.96c-5.132,2.117 -10.521,3.176 -16.168,3.176c-5.647,0 -11.05,-1.059 -16.209,-3.176c-5.158,-2.118 -9.665,-5.105 -13.52,-8.96c-3.53,-3.529 -6.055,-7.249 -7.575,-11.159c-1.521,-3.909 -2.471,-8.389 -2.851,-13.439c-0.38,-5.05 -0.57,-12.923 -0.57,-23.62c0,-10.698 0.19,-18.571 0.57,-23.621c0.38,-5.05 1.33,-9.53 2.851,-13.439c1.52,-3.91 4.045,-7.63 7.575,-11.159c3.855,-3.855 8.348,-6.842 13.48,-8.96c5.131,-2.117 10.547,-3.176 16.249,-3.176c5.701,0 11.104,1.059 16.209,3.176c5.104,2.118 9.584,5.105 13.439,8.96c3.529,3.529 6.054,7.249 7.575,11.159c1.52,3.909 2.47,8.389 2.851,13.439c0.38,5.05 0.57,12.923 0.57,23.621Zm-8.96,0c0,-9.394 -0.19,-16.562 -0.57,-21.503c-0.38,-4.942 -1.222,-9.109 -2.525,-12.503c-1.303,-3.394 -3.339,-6.475 -6.109,-9.245c-3.041,-3.04 -6.475,-5.321 -10.303,-6.841c-3.828,-1.521 -7.887,-2.281 -12.177,-2.281c-4.235,0 -8.294,0.76 -12.177,2.281c-3.882,1.52 -7.344,3.801 -10.385,6.841c-2.118,2.118 -3.76,4.317 -4.928,6.598c-1.167,2.28 -2.077,5.158 -2.728,8.634c-0.652,3.475 -1.059,7.439 -1.222,11.891c-0.163,4.453 -0.244,9.829 -0.244,16.128c0,9.393 0.19,16.548 0.57,21.462c0.38,4.914 1.222,9.081 2.525,12.502c1.303,3.421 3.312,6.489 6.027,9.204c2.987,2.987 6.435,5.267 10.344,6.842c3.91,1.575 7.983,2.362 12.218,2.362c4.29,0 8.362,-0.787 12.217,-2.362c3.856,-1.575 7.277,-3.855 10.263,-6.842c2.824,-2.823 4.874,-5.919 6.15,-9.285c1.276,-3.367 2.104,-7.507 2.484,-12.421c0.38,-4.914 0.57,-12.069 0.57,-21.462Z" style="fill:url(#_Linear6);fill-rule:nonzero;"/><path d="M819.842,98.971l-35.513,0l0,110.773l-8.959,0l0,-110.773l-35.431,0l0,-7.982l79.903,0l0,7.982Z" style="fill:url(#_Linear7);fill-rule:nonzero;"/><path d="M915.301,209.744l-72.083,0l0,-118.755l72.083,0l0,7.982l-63.042,0l0,46.916l53.676,0l0,7.982l-53.676,0l0,47.893l63.042,0l0,7.982Z" style="fill:url(#_Linear8);fill-rule:nonzero;"/></g><path d="M954.412,50.352l0,199.296l-884.824,0l0,-199.296l884.824,0Zm-872.824,12l0,175.296l860.824,0l0,-175.296l-860.824,0Z" style="fill:url(#_Linear9);"/><defs><linearGradient id="_Linear1" x1="0" y1="0" x2="1" y2="0" gradientUnits="userSpaceOnUse" gradientTransform="matrix(825.336,0,0,163.878,99.3318,168.774)"><stop offset="0%" style="stop-color:#4481eb;stop-opacity:1"/><stop offset="100%" style="stop-color:#04befe;stop-opacity:1"/></linearGradient><linearGradient id="_Linear2" x1="0" y1="0" x2="1" y2="0" gradientUnits="userSpaceOnUse" gradientTransform="matrix(825.336,0,0,163.878,99.3318,168.774)"><stop offset="0%" style="stop-color:#4481eb;stop-opacity:1"/><stop offset="100%" style="stop-color:#04befe;stop-opacity:1"/></linearGradient><linearGradient id="_Linear3" x1="0" y1="0" x2="1" y2="0" gradientUnits="userSpaceOnUse" gradientTransform="matrix(825.336,0,0,163.878,99.3318,168.774)"><stop offset="0%" style="stop-color:#4481eb;stop-opacity:1"/><stop offset="100%" style="stop-color:#04befe;stop-opacity:1"/></linearGradient><linearGradient id="_Linear4" x1="0" y1="0" x2="1" y2="0" gradientUnits="userSpaceOnUse" gradientTransform="matrix(825.336,0,0,163.878,99.3318,168.774)"><stop offset="0%" style="stop-color:#4481eb;stop-opacity:1"/><stop offset="100%" style="stop-color:#04befe;stop-opacity:1"/></linearGradient><linearGradient id="_Linear5" x1="0" y1="0" x2="1" y2="0" gradientUnits="userSpaceOnUse" gradientTransform="matrix(825.336,0,0,163.878,99.3318,168.774)"><stop offset="0%" style="stop-color:#4481eb;stop-opacity:1"/><stop offset="100%" style="stop-color:#04befe;stop-opacity:1"/></linearGradient><linearGradient id="_Linear6" x1="0" y1="0" x2="1" y2="0" gradientUnits="userSpaceOnUse" gradientTransform="matrix(825.336,0,0,163.878,99.3318,168.774)"><stop offset="0%" style="stop-color:#4481eb;stop-opacity:1"/><stop offset="100%" style="stop-color:#04befe;stop-opacity:1"/></linearGradient><linearGradient id="_Linear7" x1="0" y1="0" x2="1" y2="0" gradientUnits="userSpaceOnUse" gradientTransform="matrix(825.336,0,0,163.878,99.3318,168.774)"><stop offset="0%" style="stop-color:#4481eb;stop-opacity:1"/><stop offset="100%" style="stop-color:#04befe;stop-opacity:1"/></linearGradient><linearGradient id="_Linear8" x1="0" y1="0" x2="1" y2="0" gradientUnits="userSpaceOnUse" gradientTransform="matrix(825.336,0,0,163.878,99.3318,168.774)"><stop offset="0%" style="stop-color:#4481eb;stop-opacity:1"/><stop offset="100%" style="stop-color:#04befe;stop-opacity:1"/></linearGradient><linearGradient id="_Linear9" x1="0" y1="0" x2="1" y2="0" gradientUnits="userSpaceOnUse" gradientTransform="matrix(872.823,0,0,187.295,75.5883,150)"><stop offset="0%" style="stop-color:#04befe;stop-opacity:1"/><stop offset="100%" style="stop-color:#4481eb;stop-opacity:1"/></linearGradient></defs></svg>