<?xml version="1.0" encoding="UTF-8" standalone="no"?><!DOCTYPE svg PUBLIC "-//W3C//DTD SVG 1.1//EN" "http://www.w3.org/Graphics/SVG/1.1/DTD/svg11.dtd"><svg width="100%" height="100%" viewBox="0 0 1024 300" version="1.1" xmlns="http://www.w3.org/2000/svg" xmlns:xlink="http://www.w3.org/1999/xlink" xml:space="preserve" style="fill-rule:evenodd;clip-rule:evenodd;stroke-linejoin:round;stroke-miterlimit:1.41421;"><path d="M954.412,50.352l0,199.296l-884.824,0l0,-199.296l884.824,0Zm-872.824,12l0,175.296l860.824,0l0,-175.296l-860.824,0Z" style="fill:url(#_Linear1);"/><g><path d="M198.469,95.28l0,21.034l-33.053,0l0,88.564l-24.671,0l0,-88.564l-33.053,0l0,-21.034l90.777,0Z" style="fill:url(#_Linear2);fill-rule:nonzero;"/><path d="M214.284,204.878l0,-109.598l74.014,0l0,20.718l-49.342,0l0,21.508l43.807,0l0,20.243l-43.807,0l0,26.411l52.98,0l0,20.718l-77.652,0Z" style="fill:url(#_Linear3);fill-rule:nonzero;"/><path d="M360.098,207.092c-17.818,0 -31.393,-4.956 -40.724,-14.866c-9.33,-9.911 -13.996,-23.986 -13.996,-42.226c0,-9.067 1.424,-17.159 4.27,-24.276c2.847,-7.117 6.748,-13.126 11.703,-18.029c4.956,-4.903 10.86,-8.619 17.713,-11.149c6.853,-2.531 14.286,-3.796 22.299,-3.796c4.639,0 8.856,0.343 12.652,1.028c3.796,0.685 7.117,1.476 9.963,2.372c2.847,0.896 5.219,1.819 7.117,2.768c1.898,0.949 3.268,1.687 4.112,2.214l-7.117,19.927c-3.374,-1.793 -7.301,-3.321 -11.782,-4.587c-4.481,-1.265 -9.568,-1.897 -15.261,-1.897c-3.796,0 -7.512,0.632 -11.15,1.897c-3.637,1.266 -6.853,3.295 -9.647,6.089c-2.794,2.794 -5.034,6.405 -6.721,10.833c-1.687,4.429 -2.531,9.806 -2.531,16.132c0,5.06 0.554,9.778 1.661,14.154c1.107,4.375 2.899,8.145 5.377,11.308c2.478,3.163 5.72,5.667 9.726,7.512c4.007,1.845 8.857,2.767 14.55,2.767c3.585,0 6.8,-0.211 9.647,-0.632c2.847,-0.422 5.377,-0.923 7.591,-1.503c2.214,-0.58 4.165,-1.239 5.852,-1.977c1.687,-0.738 3.215,-1.423 4.586,-2.056l6.8,19.769c-3.479,2.109 -8.382,4.007 -14.707,5.693c-6.326,1.687 -13.654,2.531 -21.983,2.531Z" style="fill:url(#_Linear4);fill-rule:nonzero;"/><path d="M478.71,95.28l24.671,0l0,109.598l-24.671,0l0,-46.496l-41.435,0l0,46.496l-24.672,0l0,-109.598l24.672,0l0,41.91l41.435,0l0,-41.91Z" style="fill:url(#_Linear5);fill-rule:nonzero;"/><path d="M604.913,204.878c-2.004,-3.69 -4.56,-8.013 -7.671,-12.968c-3.11,-4.956 -6.51,-10.254 -10.2,-15.894c-3.69,-5.641 -7.591,-11.44 -11.703,-17.397c-4.112,-5.957 -8.198,-11.756 -12.257,-17.396c-4.059,-5.641 -8.013,-10.939 -11.861,-15.894c-3.848,-4.956 -7.301,-9.226 -10.359,-12.81l0,92.359l-10.596,0l0,-109.598l8.54,0c5.377,6.01 11.15,12.942 17.318,20.797c6.167,7.855 12.203,15.868 18.108,24.039c5.904,8.171 11.413,16.157 16.526,23.959c5.114,7.802 9.305,14.603 12.573,20.402l0,-89.197l10.596,0l0,109.598l-9.014,0Z" style="fill:url(#_Linear6);fill-rule:nonzero;"/><path d="M740.763,150c0,9.384 -1.371,17.66 -4.112,24.829c-2.741,7.17 -6.458,13.153 -11.15,17.95c-4.691,4.798 -10.148,8.409 -16.368,10.834c-6.221,2.424 -12.81,3.637 -19.769,3.637c-6.958,0 -13.548,-1.213 -19.768,-3.637c-6.221,-2.425 -11.677,-6.036 -16.369,-10.834c-4.692,-4.797 -8.408,-10.78 -11.149,-17.95c-2.742,-7.169 -4.112,-15.445 -4.112,-24.829c0,-9.384 1.37,-17.634 4.112,-24.75c2.741,-7.117 6.457,-13.074 11.149,-17.871c4.692,-4.797 10.148,-8.408 16.369,-10.833c6.22,-2.425 12.81,-3.638 19.768,-3.638c6.959,0 13.548,1.213 19.769,3.638c6.22,2.425 11.677,6.036 16.368,10.833c4.692,4.797 8.409,10.754 11.15,17.871c2.741,7.116 4.112,15.366 4.112,24.75Zm-11.387,0c0,-7.38 -0.949,-13.996 -2.847,-19.848c-1.898,-5.851 -4.586,-10.833 -8.065,-14.945c-3.48,-4.112 -7.671,-7.248 -12.573,-9.41c-4.903,-2.161 -10.412,-3.242 -16.527,-3.242c-6.115,0 -11.624,1.081 -16.526,3.242c-4.903,2.162 -9.094,5.298 -12.573,9.41c-3.48,4.112 -6.168,9.094 -8.066,14.945c-1.898,5.852 -2.847,12.468 -2.847,19.848c0,7.38 0.949,13.996 2.847,19.848c1.898,5.851 4.586,10.833 8.066,14.945c3.479,4.112 7.67,7.275 12.573,9.489c4.902,2.214 10.411,3.321 16.526,3.321c6.115,0 11.624,-1.107 16.527,-3.321c4.902,-2.214 9.093,-5.377 12.573,-9.489c3.479,-4.112 6.167,-9.094 8.065,-14.945c1.898,-5.852 2.847,-12.468 2.847,-19.848Z" style="fill:url(#_Linear7);fill-rule:nonzero;"/><path d="M831.857,95.28l0,9.331l-35.11,0l0,100.267l-10.754,0l0,-100.267l-35.109,0l0,-9.331l80.973,0Z" style="fill:url(#_Linear8);fill-rule:nonzero;"/><path d="M848.937,204.878l0,-109.598l63.259,0l0,9.331l-52.505,0l0,38.114l46.812,0l0,9.173l-46.812,0l0,43.649l56.617,0l0,9.331l-67.371,0Z" style="fill:url(#_Linear9);fill-rule:nonzero;"/></g><defs><linearGradient id="_Linear1" x1="0" y1="0" x2="1" y2="0" gradientUnits="userSpaceOnUse" gradientTransform="matrix(872.823,0,0,187.295,75.5883,150)"><stop offset="0%" style="stop-color:#04befe;stop-opacity:1"/><stop offset="100%" style="stop-color:#4481eb;stop-opacity:1"/></linearGradient><linearGradient id="_Linear2" x1="0" y1="0" x2="1" y2="0" gradientUnits="userSpaceOnUse" gradientTransform="matrix(782.483,0,0,155.369,131.552,656.346)"><stop offset="0%" style="stop-color:#4481eb;stop-opacity:1"/><stop offset="100%" style="stop-color:#04befe;stop-opacity:1"/></linearGradient><linearGradient id="_Linear3" x1="0" y1="0" x2="1" y2="0" gradientUnits="userSpaceOnUse" gradientTransform="matrix(782.483,0,0,155.369,131.552,656.346)"><stop offset="0%" style="stop-color:#4481eb;stop-opacity:1"/><stop offset="100%" style="stop-color:#04befe;stop-opacity:1"/></linearGradient><linearGradient id="_Linear4" x1="0" y1="0" x2="1" y2="0" gradientUnits="userSpaceOnUse" gradientTransform="matrix(782.483,0,0,155.369,131.552,656.346)"><stop offset="0%" style="stop-color:#4481eb;stop-opacity:1"/><stop offset="100%" style="stop-color:#04befe;stop-opacity:1"/></linearGradient><linearGradient id="_Linear5" x1="0" y1="0" x2="1" y2="0" gradientUnits="userSpaceOnUse" gradientTransform="matrix(782.483,0,0,155.369,131.552,656.346)"><stop offset="0%" style="stop-color:#4481eb;stop-opacity:1"/><stop offset="100%" style="stop-color:#04befe;stop-opacity:1"/></linearGradient><linearGradient id="_Linear6" x1="0" y1="0" x2="1" y2="0" gradientUnits="userSpaceOnUse" gradientTransform="matrix(782.483,0,0,155.369,131.552,656.346)"><stop offset="0%" style="stop-color:#4481eb;stop-opacity:1"/><stop offset="100%" style="stop-color:#04befe;stop-opacity:1"/></linearGradient><linearGradient id="_Linear7" x1="0" y1="0" x2="1" y2="0" gradientUnits="userSpaceOnUse" gradientTransform="matrix(782.483,0,0,155.369,131.552,656.346)"><stop offset="0%" style="stop-color:#4481eb;stop-opacity:1"/><stop offset="100%" style="stop-color:#04befe;stop-opacity:1"/></linearGradient><linearGradient id="_Linear8" x1="0" y1="0" x2="1" y2="0" gradientUnits="userSpaceOnUse" gradientTransform="matrix(782.483,0,0,155.369,131.552,656.346)"><stop offset="0%" style="stop-color:#4481eb;stop-opacity:1"/><stop offset="100%" style="stop-color:#04befe;stop-opacity:1"/></linearGradient><linearGradient id="_Linear9" x1="0" y1="0" x2="1" y2="0" gradientUnits="userSpaceOnUse" gradientTransform="matrix(782.483,0,0,155.369,131.552,656.346)"><stop offset="0%" style="stop-color:#4481eb;stop-opacity:1"/><stop offset="100%" style="stop-color:#04befe;stop-opacity:1"/></linearGradient></defs></svg>